<svg xmlns="http://www.w3.org/2000/svg" xml:space="preserve" viewBox="1.41 -2.75 1077.34 1085.51"><g transform="translate(540 540)"/><g transform="translate(540 540)"/><rect style="stroke:#000;stroke-width:0;stroke-dasharray:none;stroke-linecap:butt;stroke-dashoffset:0;stroke-linejoin:miter;stroke-miterlimit:4;fill:#fff;fill-rule:nonzero;opacity:1" vector-effect="non-scaling-stroke" x="-33.085" y="-33.085" rx="0" ry="0" width="66.17" height="66.17" transform="matrix(13.96 0 0 12.9 540 540)"/><path style="stroke:none;stroke-width:1;stroke-dasharray:none;stroke-linecap:butt;stroke-dashoffset:0;stroke-linejoin:miter;stroke-miterlimit:4;fill:#ea580c;fill-rule:evenodd;opacity:1" transform="matrix(18 0 0 18 -1.26 -13.14)" d="M11.625.64c-1.48.063-1.973.135-2.69.39C4.34 2.66 1.44 5.95.366 10.75.137 11.773.13 12.524.163 30.938c.033 18.129.047 19.17.266 20 1.24 4.703 4.697 8.371 9.039 9.592l.97.273 19.313.04 19.312.04 1.249-.317c5.308-1.347 9.008-5.87 9.563-11.687.169-1.775.167-35.115-.002-36.722-.167-1.584-.319-2.251-.79-3.47-.651-1.687-2.047-3.798-3.23-4.885-1.434-1.319-3.483-2.454-5.318-2.946C49.572.596 49.404.594 31.5.579 21.566.569 12.622.597 11.625.64m16.52 8.811c-.543.135-1.106.41-1.783.87l-.99.674-.636-.25a4.74 4.74 0 0 0-4.03.235c-.688.367-1.386 1.117-1.577 1.694l-.13.389-1.045.018c-1.133.019-1.738.219-2.878.95-.823.528-1.639 1.662-1.962 2.728-.237.778-.313.887-.868 1.243a6.3 6.3 0 0 0-1.063.894c-.434.48-1.308 2.111-1.308 2.441 0 .086-.155.238-.344.337-.388.204-1.126.96-1.456 1.492-.12.194-.364.729-.542 1.188-.277.715-.325 1.039-.335 2.275-.01 1.44-.011 1.443-.421 1.938-1.093 1.32-.968 3.76.277 5.408.462.61.552.778 1.181 2.183.775 1.732 2.67 3.86 4.805 5.396 1.814 1.305 4.783 2.695 7.588 3.555 5.154 1.578 12.64 1.708 17.747.307 6.54-1.794 11.096-4.855 13.293-8.934.236-.437.465-.954.51-1.149s.196-.476.335-.625c.853-.912 1.53-2.54 1.542-3.708.01-.927-.23-1.69-.765-2.426-.441-.607-.446-.625-.471-2-.042-2.224-.782-3.895-2.137-4.828-.306-.21-.557-.479-.557-.596s-.169-.569-.375-1.004c-.405-.858-1.388-1.917-2.163-2.33-.26-.14-.462-.342-.462-.465 0-.802-.923-2.421-1.767-3.1-.994-.798-2.73-1.356-3.715-1.193-.449.074-.461.065-.83-.629-.416-.78-.986-1.294-1.897-1.71-.834-.38-2.532-.376-3.597.01l-.744.27-.319-.297c-.468-.436-1.234-.881-1.944-1.13-.888-.311-3.133-.376-4.167-.12m-6.32 3.859c-.555.197-.695.364-.698.831-.003.471.193.57 1.254.636.83.05 1.05.12 1.82.578.942.56 1.334.631 1.771.325.615-.43.237-1.076-1.08-1.848-1.189-.696-2.13-.857-3.067-.522m14.863-.102c-.835.18-2.572 1.217-2.823 1.685-.114.213-.094.326.103.591.398.536.946.5 2.041-.133.817-.471 1.038-.541 1.841-.582s.937-.084 1.111-.35c.536-.818-.8-1.529-2.273-1.211m-18.99 2.432c-.985.23-1.702.896-2.215 2.056-.296.669-.226 1.213.18 1.395.42.188.888-.04 1.193-.585.15-.265.477-.663.728-.883.617-.542 1.253-.48 1.815.179.679.795 1.567.509 1.437-.463-.082-.615-.566-1.147-1.398-1.541-.665-.314-.96-.341-1.74-.158m22.865.193c-1.135.598-1.68 1.77-1.035 2.222.419.294.638.242 1.3-.305.958-.792 1.512-.684 2.226.433.466.728.749.942 1.246.942.66 0 .721-.858.137-1.904-.364-.65-.701-.978-1.373-1.333-.617-.326-1.933-.355-2.501-.055m-15.076 2.534c-1.04.203-2.362 1.318-2.362 1.993 0 .374.332.765.649.765.105 0 .41-.149.677-.331.667-.454 1.215-.67 1.701-.668.39.001 1.616.6 1.784.871.132.214.674.143.939-.122.372-.372.307-.694-.263-1.312-.822-.892-2.125-1.39-3.125-1.196m7.714.079c-.638.234-1.79 1.003-1.95 1.302-.07.13-.126.437-.126.684 0 .348.065.478.291.581.314.143.606.043 1.697-.576.795-.45 1.305-.409 2.294.188.456.275.917.5 1.024.5.278 0 .694-.454.694-.758 0-.434-1.224-1.543-2.04-1.848-.825-.309-1.201-.323-1.884-.073M18.59 24.379c-.26.066-.633.201-.828.302-.58.3-1.476 1.395-1.705 2.085-.734 2.212.953 4.6 3.256 4.606 1.027.002 1.639-.188 2.376-.74 2.077-1.557 1.74-4.792-.62-5.947-.74-.362-1.755-.487-2.48-.306m21.223-.02c-1.208.314-2.293 1.309-2.616 2.398-.235.79-.245 1.186-.052 1.969.435 1.767 2.283 2.994 4.02 2.671a4.4 4.4 0 0 0 1.337-.523c2.054-1.318 2.335-3.925.602-5.586-.778-.747-2.319-1.181-3.291-.928m-23.75 9.412c-1.038.538-3.21 1.887-3.444 2.14-.36.386-.32 1.011.085 1.33.181.142.449.259.594.259.265 0 3.947-2.049 4.358-2.425.32-.292.277-.903-.088-1.268-.375-.376-.83-.387-1.506-.036m26.361.044c-.232.232-.304.42-.276.718.033.334.16.485.727.861.712.474 3.408 2.003 3.765 2.135.332.124.95-.339 1.049-.785.117-.534-.191-.934-1.14-1.479a225 225 0 0 1-1.872-1.094c-1.305-.77-1.766-.844-2.253-.356m-16.325.406-2.589.034-.124.45c-.286 1.036.43 2.742 1.653 3.937.829.81 2.046 1.496 3.166 1.785.988.255 2.618.253 3.662-.004 2.214-.544 4.14-2.284 4.771-4.31.295-.947.297-1.26.013-1.612-.223-.275-.26-.278-4.094-.295-2.128-.01-5.034-.003-6.458.015m-10.414 3.853c-.824.453-1.596.937-1.716 1.076-.29.336-.276.743.04 1.146.437.555.966.458 2.623-.484 1.485-.844 1.868-1.169 1.868-1.585 0-.34-.668-.977-1.024-.977-.162 0-.968.37-1.791.824m26.2-.495c-.346.439-.33.942.04 1.31.464.463 2.982 1.736 3.433 1.736.858 0 1.202-.998.548-1.59-.53-.48-3.027-1.785-3.416-1.785-.226 0-.437.115-.606.33m-31.51 4.34c0 .295 1.83 2.803 2.721 3.73 2.478 2.575 5.457 4.2 9.712 5.297 2.213.571 4.204.807 7.015.833 2.616.023 4.02-.118 6.552-.658 3.43-.732 6.01-1.799 8.329-3.443 1.11-.788 2.688-2.312 3.393-3.278.627-.857 1.528-2.304 1.528-2.453 0-.046-.47.279-1.042.721-3.554 2.744-8.701 4.722-14.083 5.413-2.014.26-6.648.29-8.562.056-3.768-.458-7.788-1.646-11.06-3.267-.928-.46-2.776-1.628-3.44-2.173-.924-.758-1.063-.86-1.063-.778"/></svg>